<svg xmlns="http://www.w3.org/2000/svg" xmlns:xlink="http://www.w3.org/1999/xlink" width="500" zoomAndPan="magnify" viewBox="0 0 375 374.999991" height="500" preserveAspectRatio="xMidYMid meet" version="1.0"><defs><filter x="0%" y="0%" width="100%" height="100%" id="dbb9a40190"><feColorMatrix values="0 0 0 0 1 0 0 0 0 1 0 0 0 0 1 0 0 0 1 0" color-interpolation-filters="sRGB"/></filter><g/><clipPath id="05d24a83fb"><path d="M 173 113.878906 L 202 113.878906 L 202 189 L 173 189 Z M 173 113.878906 " clip-rule="nonzero"/></clipPath><mask id="41b94670d5"><g filter="url(#dbb9a40190)"><rect x="-37.5" width="450" fill="#000000" y="-37.499999" height="449.999989" fill-opacity="0.8471"/></g></mask><clipPath id="16f5d329c8"><path d="M 0.0390625 0.878906 L 28.601562 0.878906 L 28.601562 75.640625 L 0.0390625 75.640625 Z M 0.0390625 0.878906 " clip-rule="nonzero"/></clipPath><clipPath id="09960a9f12"><rect x="0" width="29" y="0" height="76"/></clipPath><mask id="ce3918edae"><g filter="url(#dbb9a40190)"><rect x="-37.5" width="450" fill="#000000" y="-37.499999" height="449.999989" fill-opacity="0.8471"/></g></mask><clipPath id="322b0ab0fd"><path d="M 0.199219 0.359375 L 53 0.359375 L 53 53.640625 L 0.199219 53.640625 Z M 0.199219 0.359375 " clip-rule="nonzero"/></clipPath><clipPath id="c2c41e79ab"><rect x="0" width="54" y="0" height="54"/></clipPath><clipPath id="1c0e25a70f"><path d="M 187 173 L 261.589844 173 L 261.589844 202.378906 L 187 202.378906 Z M 187 173 " clip-rule="nonzero"/></clipPath><mask id="0e41163766"><g filter="url(#dbb9a40190)"><rect x="-37.5" width="450" fill="#000000" y="-37.499999" height="449.999989" fill-opacity="0.8471"/></g></mask><clipPath id="4f4b3bff8b"><path d="M 0.199219 1 L 74.589844 1 L 74.589844 29.378906 L 0.199219 29.378906 Z M 0.199219 1 " clip-rule="nonzero"/></clipPath><clipPath id="5a6c25f579"><rect x="0" width="75" y="0" height="30"/></clipPath><clipPath id="57146cf391"><path d="M 113.160156 173 L 188 173 L 188 202.378906 L 113.160156 202.378906 Z M 113.160156 173 " clip-rule="nonzero"/></clipPath><mask id="09dfd18c2e"><g filter="url(#dbb9a40190)"><rect x="-37.5" width="450" fill="#000000" y="-37.499999" height="449.999989" fill-opacity="0.8471"/></g></mask><clipPath id="5f57dbf07d"><path d="M 0.160156 1 L 74.679688 1 L 74.679688 29.378906 L 0.160156 29.378906 Z M 0.160156 1 " clip-rule="nonzero"/></clipPath><clipPath id="9fb3522146"><rect x="0" width="75" y="0" height="30"/></clipPath><mask id="9ff8551240"><g filter="url(#dbb9a40190)"><rect x="-37.5" width="450" fill="#000000" y="-37.499999" height="449.999989" fill-opacity="0.8471"/></g></mask><clipPath id="2aeb2958e3"><path d="M 0.640625 0.359375 L 53.679688 0.359375 L 53.679688 53.640625 L 0.640625 53.640625 Z M 0.640625 0.359375 " clip-rule="nonzero"/></clipPath><clipPath id="5933d9d7f0"><rect x="0" width="54" y="0" height="54"/></clipPath></defs><g clip-path="url(#05d24a83fb)"><g mask="url(#41b94670d5)"><g transform="matrix(1, 0, 0, 1, 173, 113)"><g clip-path="url(#09960a9f12)"><g clip-path="url(#16f5d329c8)"><path fill="#97c63a" d="M 14.339844 0.886719 C 5.601562 10.796875 0.300781 23.828125 0.300781 38.097656 C 0.300781 52.367188 5.601562 65.398438 14.339844 75.308594 C 23.078125 65.398438 28.382812 52.367188 28.382812 38.097656 C 28.382812 23.828125 23.078125 10.796875 14.339844 0.886719 " fill-opacity="1" fill-rule="evenodd"/></g></g></g></g></g><g mask="url(#ce3918edae)"><g transform="matrix(1, 0, 0, 1, 187, 135)"><g clip-path="url(#c2c41e79ab)"><g clip-path="url(#322b0ab0fd)"><path fill="#74992e" d="M 52.789062 0.683594 C 39.625 1.492188 26.695312 6.945312 16.636719 17.035156 C 6.578125 27.125 1.144531 40.101562 0.339844 53.308594 C 13.503906 52.5 26.433594 47.050781 36.492188 36.957031 C 46.550781 26.867188 51.984375 13.890625 52.789062 0.683594 " fill-opacity="1" fill-rule="evenodd"/></g></g></g></g><g clip-path="url(#1c0e25a70f)"><g mask="url(#0e41163766)"><g transform="matrix(1, 0, 0, 1, 187, 173)"><g clip-path="url(#5a6c25f579)"><g clip-path="url(#4f4b3bff8b)"><path fill="#386910" d="M 74.511719 15.308594 C 64.636719 6.542969 51.652344 1.21875 37.425781 1.21875 C 23.203125 1.21875 10.21875 6.542969 0.339844 15.308594 C 10.21875 24.074219 23.203125 29.394531 37.425781 29.394531 C 51.652344 29.394531 64.636719 24.074219 74.511719 15.308594 " fill-opacity="1" fill-rule="evenodd"/></g></g></g></g></g><g clip-path="url(#57146cf391)"><g mask="url(#09dfd18c2e)"><g transform="matrix(1, 0, 0, 1, 113, 173)"><g clip-path="url(#9fb3522146)"><g clip-path="url(#5f57dbf07d)"><path fill="#386910" d="M 0.167969 15.308594 C 10.042969 24.074219 23.03125 29.394531 37.253906 29.394531 C 51.476562 29.394531 64.464844 24.074219 74.339844 15.308594 C 64.464844 6.542969 51.476562 1.21875 37.253906 1.21875 C 23.03125 1.21875 10.042969 6.542969 0.167969 15.308594 " fill-opacity="1" fill-rule="evenodd"/></g></g></g></g></g><g mask="url(#9ff8551240)"><g transform="matrix(1, 0, 0, 1, 134, 135)"><g clip-path="url(#5933d9d7f0)"><g clip-path="url(#2aeb2958e3)"><path fill="#74992e" d="M 0.890625 0.683594 C 1.699219 13.890625 7.128906 26.867188 17.1875 36.957031 C 27.246094 47.050781 40.179688 52.5 53.339844 53.308594 C 52.535156 40.101562 47.101562 27.125 37.042969 17.035156 C 26.988281 6.941406 14.054688 1.492188 0.890625 0.683594 " fill-opacity="1" fill-rule="evenodd"/></g></g></g></g><g fill="#35323d" fill-opacity="1"><g transform="translate(79.785051, 242.163325)"><g><path d="M 16.484375 -16.609375 L 27.59375 -16.609375 L 27.59375 -5.84375 C 25.9375 -3.738281 24.097656 -2.148438 22.078125 -1.078125 C 20.066406 -0.00390625 17.957031 0.53125 15.75 0.53125 C 13.757812 0.53125 11.878906 0.125 10.109375 -0.6875 C 8.335938 -1.5 6.800781 -2.59375 5.5 -3.96875 C 4.207031 -5.351562 3.179688 -6.960938 2.421875 -8.796875 C 1.660156 -10.640625 1.28125 -12.597656 1.28125 -14.671875 C 1.28125 -16.742188 1.660156 -18.691406 2.421875 -20.515625 C 3.179688 -22.335938 4.207031 -23.9375 5.5 -25.3125 C 6.800781 -26.695312 8.335938 -27.789062 10.109375 -28.59375 C 11.878906 -29.394531 13.757812 -29.796875 15.75 -29.796875 C 17.625 -29.796875 19.394531 -29.445312 21.0625 -28.75 C 22.738281 -28.0625 24.363281 -26.914062 25.9375 -25.3125 L 22.296875 -20.890625 C 21.128906 -21.960938 20.035156 -22.6875 19.015625 -23.0625 C 17.992188 -23.4375 16.914062 -23.625 15.78125 -23.625 C 14.625 -23.625 13.539062 -23.382812 12.53125 -22.90625 C 11.519531 -22.4375 10.640625 -21.800781 9.890625 -21 C 9.148438 -20.207031 8.566406 -19.265625 8.140625 -18.171875 C 7.710938 -17.078125 7.5 -15.910156 7.5 -14.671875 C 7.5 -13.421875 7.710938 -12.257812 8.140625 -11.1875 C 8.566406 -10.113281 9.148438 -9.164062 9.890625 -8.34375 C 10.640625 -7.53125 11.519531 -6.890625 12.53125 -6.421875 C 13.539062 -5.953125 14.625 -5.71875 15.78125 -5.71875 C 16.8125 -5.71875 17.828125 -5.90625 18.828125 -6.28125 C 19.835938 -6.65625 20.851562 -7.269531 21.875 -8.125 L 21.875 -11.3125 L 16.484375 -11.3125 Z M 16.484375 -16.609375 "/></g></g></g><g fill="#35323d" fill-opacity="1"><g transform="translate(108.78313, 242.163325)"><g><path d="M 7.5 -17.6875 C 7.78125 -18.132812 8.097656 -18.554688 8.453125 -18.953125 C 8.804688 -19.359375 9.234375 -19.71875 9.734375 -20.03125 C 10.234375 -20.351562 10.800781 -20.609375 11.4375 -20.796875 C 12.070312 -20.992188 12.789062 -21.09375 13.59375 -21.09375 C 14.53125 -21.09375 15.617188 -20.925781 16.859375 -20.59375 L 16.328125 -15.5 C 16.023438 -15.550781 15.722656 -15.617188 15.421875 -15.703125 C 15.171875 -15.753906 14.890625 -15.800781 14.578125 -15.84375 C 14.273438 -15.882812 14 -15.90625 13.75 -15.90625 C 12.875 -15.90625 12.054688 -15.78125 11.296875 -15.53125 C 10.535156 -15.289062 9.878906 -14.945312 9.328125 -14.5 C 8.773438 -14.0625 8.332031 -13.53125 8 -12.90625 C 7.664062 -12.28125 7.5 -11.609375 7.5 -10.890625 L 7.5 0 L 1.78125 0 L 1.78125 -20.546875 L 6.96875 -20.546875 Z M 7.5 -17.6875 "/></g></g></g><g fill="#35323d" fill-opacity="1"><g transform="translate(125.850573, 242.163325)"><g><path d="M 12.015625 -21.140625 C 13.566406 -21.140625 14.976562 -20.828125 16.25 -20.203125 C 17.519531 -19.578125 18.609375 -18.757812 19.515625 -17.75 C 20.429688 -16.75 21.132812 -15.59375 21.625 -14.28125 C 22.125 -12.96875 22.375 -11.617188 22.375 -10.234375 C 22.375 -9.398438 22.265625 -8.515625 22.046875 -7.578125 L 7.375 -7.578125 C 7.925781 -6.640625 8.710938 -5.847656 9.734375 -5.203125 C 10.753906 -4.554688 11.859375 -4.234375 13.046875 -4.234375 C 14.234375 -4.234375 15.273438 -4.328125 16.171875 -4.515625 C 17.078125 -4.710938 17.929688 -4.960938 18.734375 -5.265625 L 20.640625 -1.734375 C 19.617188 -1.015625 18.453125 -0.460938 17.140625 -0.078125 C 15.828125 0.304688 14.421875 0.5 12.921875 0.5 C 11.296875 0.5 9.773438 0.21875 8.359375 -0.34375 C 6.953125 -0.914062 5.722656 -1.6875 4.671875 -2.65625 C 3.628906 -3.625 2.800781 -4.769531 2.1875 -6.09375 C 1.582031 -7.414062 1.28125 -8.820312 1.28125 -10.3125 C 1.28125 -11.78125 1.554688 -13.171875 2.109375 -14.484375 C 2.660156 -15.796875 3.425781 -16.941406 4.40625 -17.921875 C 5.394531 -18.898438 6.535156 -19.679688 7.828125 -20.265625 C 9.128906 -20.847656 10.523438 -21.140625 12.015625 -21.140625 Z M 16.703125 -12.015625 C 16.367188 -13.203125 15.773438 -14.164062 14.921875 -14.90625 C 14.066406 -15.65625 13.097656 -16.03125 12.015625 -16.03125 C 10.910156 -16.03125 9.910156 -15.65625 9.015625 -14.90625 C 8.117188 -14.164062 7.503906 -13.203125 7.171875 -12.015625 Z M 16.703125 -12.015625 "/></g></g></g><g fill="#35323d" fill-opacity="1"><g transform="translate(150.498936, 242.163325)"><g><path d="M 12.015625 -21.140625 C 13.566406 -21.140625 14.976562 -20.828125 16.25 -20.203125 C 17.519531 -19.578125 18.609375 -18.757812 19.515625 -17.75 C 20.429688 -16.75 21.132812 -15.59375 21.625 -14.28125 C 22.125 -12.96875 22.375 -11.617188 22.375 -10.234375 C 22.375 -9.398438 22.265625 -8.515625 22.046875 -7.578125 L 7.375 -7.578125 C 7.925781 -6.640625 8.710938 -5.847656 9.734375 -5.203125 C 10.753906 -4.554688 11.859375 -4.234375 13.046875 -4.234375 C 14.234375 -4.234375 15.273438 -4.328125 16.171875 -4.515625 C 17.078125 -4.710938 17.929688 -4.960938 18.734375 -5.265625 L 20.640625 -1.734375 C 19.617188 -1.015625 18.453125 -0.460938 17.140625 -0.078125 C 15.828125 0.304688 14.421875 0.5 12.921875 0.5 C 11.296875 0.5 9.773438 0.21875 8.359375 -0.34375 C 6.953125 -0.914062 5.722656 -1.6875 4.671875 -2.65625 C 3.628906 -3.625 2.800781 -4.769531 2.1875 -6.09375 C 1.582031 -7.414062 1.28125 -8.820312 1.28125 -10.3125 C 1.28125 -11.78125 1.554688 -13.171875 2.109375 -14.484375 C 2.660156 -15.796875 3.425781 -16.941406 4.40625 -17.921875 C 5.394531 -18.898438 6.535156 -19.679688 7.828125 -20.265625 C 9.128906 -20.847656 10.523438 -21.140625 12.015625 -21.140625 Z M 16.703125 -12.015625 C 16.367188 -13.203125 15.773438 -14.164062 14.921875 -14.90625 C 14.066406 -15.65625 13.097656 -16.03125 12.015625 -16.03125 C 10.910156 -16.03125 9.910156 -15.65625 9.015625 -14.90625 C 8.117188 -14.164062 7.503906 -13.203125 7.171875 -12.015625 Z M 16.703125 -12.015625 "/></g></g></g><g fill="#35323d" fill-opacity="1"><g transform="translate(175.1473, 242.163325)"><g><path d="M 12.5625 -20.546875 C 13.332031 -20.546875 14.1875 -20.4375 15.125 -20.21875 C 16.0625 -20 16.941406 -19.582031 17.765625 -18.96875 C 18.597656 -18.363281 19.296875 -17.519531 19.859375 -16.4375 C 20.429688 -15.363281 20.71875 -13.972656 20.71875 -12.265625 L 20.71875 0 L 14.953125 0 L 14.953125 -12.0625 C 14.953125 -12.695312 14.847656 -13.234375 14.640625 -13.671875 C 14.441406 -14.117188 14.164062 -14.472656 13.8125 -14.734375 C 13.46875 -14.992188 13.070312 -15.1875 12.625 -15.3125 C 12.1875 -15.4375 11.75 -15.5 11.3125 -15.5 C 10.957031 -15.5 10.5625 -15.4375 10.125 -15.3125 C 9.695312 -15.1875 9.296875 -14.984375 8.921875 -14.703125 C 8.554688 -14.429688 8.25 -14.070312 8 -13.625 C 7.75 -13.1875 7.625 -12.664062 7.625 -12.0625 L 7.625 0 L 1.90625 0 L 1.90625 -20.546875 L 6.796875 -20.546875 L 7.625 -18.984375 C 8.289062 -19.453125 9.035156 -19.828125 9.859375 -20.109375 C 10.691406 -20.398438 11.59375 -20.546875 12.5625 -20.546875 Z M 12.5625 -20.546875 "/></g></g></g><g fill="#35323d" fill-opacity="1"><g transform="translate(197.558664, 242.163325)"><g/></g></g><g fill="#35323d" fill-opacity="1"><g transform="translate(208.950765, 242.163325)"><g><path d="M 8.25 -5.671875 L 20.296875 -5.671875 L 20.296875 0 L 1.953125 0 L 1.953125 -29.375 L 8.25 -29.375 Z M 8.25 -5.671875 "/></g></g></g><g fill="#35323d" fill-opacity="1"><g transform="translate(229.663677, 242.163325)"><g><path d="M 12.015625 -21.140625 C 13.566406 -21.140625 14.976562 -20.828125 16.25 -20.203125 C 17.519531 -19.578125 18.609375 -18.757812 19.515625 -17.75 C 20.429688 -16.75 21.132812 -15.59375 21.625 -14.28125 C 22.125 -12.96875 22.375 -11.617188 22.375 -10.234375 C 22.375 -9.398438 22.265625 -8.515625 22.046875 -7.578125 L 7.375 -7.578125 C 7.925781 -6.640625 8.710938 -5.847656 9.734375 -5.203125 C 10.753906 -4.554688 11.859375 -4.234375 13.046875 -4.234375 C 14.234375 -4.234375 15.273438 -4.328125 16.171875 -4.515625 C 17.078125 -4.710938 17.929688 -4.960938 18.734375 -5.265625 L 20.640625 -1.734375 C 19.617188 -1.015625 18.453125 -0.460938 17.140625 -0.078125 C 15.828125 0.304688 14.421875 0.5 12.921875 0.5 C 11.296875 0.5 9.773438 0.21875 8.359375 -0.34375 C 6.953125 -0.914062 5.722656 -1.6875 4.671875 -2.65625 C 3.628906 -3.625 2.800781 -4.769531 2.1875 -6.09375 C 1.582031 -7.414062 1.28125 -8.820312 1.28125 -10.3125 C 1.28125 -11.78125 1.554688 -13.171875 2.109375 -14.484375 C 2.660156 -15.796875 3.425781 -16.941406 4.40625 -17.921875 C 5.394531 -18.898438 6.535156 -19.679688 7.828125 -20.265625 C 9.128906 -20.847656 10.523438 -21.140625 12.015625 -21.140625 Z M 16.703125 -12.015625 C 16.367188 -13.203125 15.773438 -14.164062 14.921875 -14.90625 C 14.066406 -15.65625 13.097656 -16.03125 12.015625 -16.03125 C 10.910156 -16.03125 9.910156 -15.65625 9.015625 -14.90625 C 8.117188 -14.164062 7.503906 -13.203125 7.171875 -12.015625 Z M 16.703125 -12.015625 "/></g></g></g><g fill="#35323d" fill-opacity="1"><g transform="translate(254.312041, 242.163325)"><g><path d="M 23.375 -20.546875 L 23.375 0 L 18.4375 0 L 17.859375 -2.203125 C 17.054688 -1.117188 16.09375 -0.394531 14.96875 -0.03125 C 13.851562 0.320312 12.691406 0.5 11.484375 0.5 C 10.015625 0.5 8.664062 0.21875 7.4375 -0.34375 C 6.207031 -0.914062 5.132812 -1.691406 4.21875 -2.671875 C 3.3125 -3.648438 2.601562 -4.796875 2.09375 -6.109375 C 1.582031 -7.421875 1.328125 -8.820312 1.328125 -10.3125 C 1.328125 -11.8125 1.582031 -13.210938 2.09375 -14.515625 C 2.601562 -15.828125 3.3125 -16.972656 4.21875 -17.953125 C 5.132812 -18.941406 6.207031 -19.71875 7.4375 -20.28125 C 8.664062 -20.851562 10.015625 -21.140625 11.484375 -21.140625 C 12.804688 -21.140625 14.019531 -20.929688 15.125 -20.515625 C 16.226562 -20.097656 17.140625 -19.429688 17.859375 -18.515625 L 18.4375 -20.546875 Z M 17.65625 -10.234375 C 17.65625 -11.304688 17.507812 -12.207031 17.21875 -12.9375 C 16.925781 -13.675781 16.535156 -14.273438 16.046875 -14.734375 C 15.566406 -15.191406 15.003906 -15.519531 14.359375 -15.71875 C 13.710938 -15.925781 13.015625 -16.03125 12.265625 -16.03125 C 11.515625 -16.03125 10.816406 -15.878906 10.171875 -15.578125 C 9.523438 -15.273438 8.953125 -14.867188 8.453125 -14.359375 C 7.953125 -13.847656 7.5625 -13.238281 7.28125 -12.53125 C 7.007812 -11.832031 6.875 -11.09375 6.875 -10.3125 C 6.875 -9.507812 7.007812 -8.765625 7.28125 -8.078125 C 7.5625 -7.390625 7.953125 -6.789062 8.453125 -6.28125 C 8.953125 -5.769531 9.523438 -5.359375 10.171875 -5.046875 C 10.816406 -4.742188 11.515625 -4.59375 12.265625 -4.59375 C 13.753906 -4.59375 15.015625 -5.054688 16.046875 -5.984375 C 17.085938 -6.910156 17.625 -8.328125 17.65625 -10.234375 Z M 17.65625 -10.234375 "/></g></g></g><g fill="#35323d" fill-opacity="1"><g transform="translate(279.498952, 242.163325)"><g><path d="M 3.484375 -22.296875 C 3.484375 -23.734375 3.695312 -24.96875 4.125 -26 C 4.550781 -27.039062 5.125 -27.898438 5.84375 -28.578125 C 6.5625 -29.253906 7.390625 -29.75 8.328125 -30.0625 C 9.265625 -30.382812 10.257812 -30.546875 11.3125 -30.546875 C 11.945312 -30.546875 12.582031 -30.488281 13.21875 -30.375 C 13.851562 -30.257812 14.488281 -30.09375 15.125 -29.875 L 14.671875 -25.6875 L 13.296875 -25.890625 C 13.078125 -25.921875 12.878906 -25.941406 12.703125 -25.953125 C 12.523438 -25.972656 12.351562 -25.984375 12.1875 -25.984375 C 11.132812 -25.984375 10.363281 -25.726562 9.875 -25.21875 C 9.394531 -24.707031 9.15625 -23.96875 9.15625 -23 L 9.15625 -20.546875 L 14.671875 -20.546875 L 14.671875 -15.453125 L 9.15625 -15.453125 L 9.15625 0 L 3.484375 0 L 3.484375 -15.453125 L 0.78125 -15.453125 L 0.78125 -18.484375 L 3.484375 -20.546875 Z M 3.484375 -22.296875 "/></g></g></g><g fill="#35323d" fill-opacity="1"><g transform="translate(123.586501, 258.76595)"><g><path d="M 5.90625 0 L 4.5625 0 L 1.9375 -4.3125 L 1.9375 0 L 0.578125 0 L 0.578125 -6.546875 L 1.9375 -6.546875 L 4.5625 -2.234375 L 4.5625 -6.546875 L 5.90625 -6.546875 Z M 5.90625 0 "/></g></g></g><g fill="#35323d" fill-opacity="1"><g transform="translate(135.606436, 258.76595)"><g><path d="M 4.28125 -1.34375 L 1.921875 -1.34375 L 1.46875 0 L 0.03125 0 L 2.46875 -6.546875 L 3.71875 -6.546875 L 6.171875 0 L 4.734375 0 Z M 2.28125 -2.4375 L 3.90625 -2.4375 L 3.09375 -4.890625 Z M 2.28125 -2.4375 "/></g></g></g><g fill="#35323d" fill-opacity="1"><g transform="translate(147.320928, 258.76595)"><g><path d="M 5.515625 -5.453125 L 3.5 -5.453125 L 3.5 0 L 2.15625 0 L 2.15625 -5.453125 L 0.1875 -5.453125 L 0.1875 -6.546875 L 5.515625 -6.546875 Z M 5.515625 -5.453125 "/></g></g></g><g fill="#35323d" fill-opacity="1"><g transform="translate(158.536835, 258.76595)"><g><path d="M 5.53125 -6.546875 L 5.53125 -2.234375 C 5.53125 -1.515625 5.304688 -0.945312 4.859375 -0.53125 C 4.410156 -0.113281 3.800781 0.09375 3.03125 0.09375 C 2.269531 0.09375 1.660156 -0.109375 1.203125 -0.515625 C 0.753906 -0.921875 0.523438 -1.476562 0.515625 -2.1875 L 0.515625 -6.546875 L 1.875 -6.546875 L 1.875 -2.21875 C 1.875 -1.789062 1.972656 -1.476562 2.171875 -1.28125 C 2.378906 -1.09375 2.664062 -1 3.03125 -1 C 3.789062 -1 4.175781 -1.394531 4.1875 -2.1875 L 4.1875 -6.546875 Z M 5.53125 -6.546875 "/></g></g></g><g fill="#35323d" fill-opacity="1"><g transform="translate(170.116573, 258.76595)"><g><path d="M 3 -2.390625 L 1.9375 -2.390625 L 1.9375 0 L 0.578125 0 L 0.578125 -6.546875 L 3.015625 -6.546875 C 3.785156 -6.546875 4.378906 -6.375 4.796875 -6.03125 C 5.222656 -5.6875 5.4375 -5.195312 5.4375 -4.5625 C 5.4375 -4.113281 5.335938 -3.738281 5.140625 -3.4375 C 4.953125 -3.144531 4.660156 -2.910156 4.265625 -2.734375 L 5.6875 -0.0625 L 5.6875 0 L 4.234375 0 Z M 1.9375 -3.484375 L 3.015625 -3.484375 C 3.359375 -3.484375 3.617188 -3.566406 3.796875 -3.734375 C 3.984375 -3.910156 4.078125 -4.148438 4.078125 -4.453125 C 4.078125 -4.765625 3.988281 -5.007812 3.8125 -5.1875 C 3.644531 -5.363281 3.378906 -5.453125 3.015625 -5.453125 L 1.9375 -5.453125 Z M 1.9375 -3.484375 "/></g></g></g><g fill="#35323d" fill-opacity="1"><g transform="translate(181.512152, 258.76595)"><g><path d="M 4.515625 -2.828125 L 1.9375 -2.828125 L 1.9375 -1.078125 L 4.96875 -1.078125 L 4.96875 0 L 0.578125 0 L 0.578125 -6.546875 L 4.96875 -6.546875 L 4.96875 -5.453125 L 1.9375 -5.453125 L 1.9375 -3.890625 L 4.515625 -3.890625 Z M 4.515625 -2.828125 "/></g></g></g><g fill="#35323d" fill-opacity="1"><g transform="translate(192.211496, 258.76595)"><g/></g></g><g fill="#35323d" fill-opacity="1"><g transform="translate(200.027101, 258.76595)"><g><path d="M 1.9375 -2.3125 L 1.9375 0 L 0.578125 0 L 0.578125 -6.546875 L 3.140625 -6.546875 C 3.628906 -6.546875 4.0625 -6.453125 4.4375 -6.265625 C 4.8125 -6.085938 5.097656 -5.832031 5.296875 -5.5 C 5.492188 -5.175781 5.59375 -4.800781 5.59375 -4.375 C 5.59375 -3.738281 5.375 -3.234375 4.9375 -2.859375 C 4.5 -2.492188 3.890625 -2.3125 3.109375 -2.3125 Z M 1.9375 -3.390625 L 3.140625 -3.390625 C 3.492188 -3.390625 3.765625 -3.472656 3.953125 -3.640625 C 4.140625 -3.816406 4.234375 -4.0625 4.234375 -4.375 C 4.234375 -4.6875 4.140625 -4.941406 3.953125 -5.140625 C 3.765625 -5.335938 3.503906 -5.441406 3.171875 -5.453125 L 1.9375 -5.453125 Z M 1.9375 -3.390625 "/></g></g></g><g fill="#35323d" fill-opacity="1"><g transform="translate(211.485566, 258.76595)"><g><path d="M 1.9375 -1.078125 L 4.796875 -1.078125 L 4.796875 0 L 0.578125 0 L 0.578125 -6.546875 L 1.9375 -6.546875 Z M 1.9375 -1.078125 "/></g></g></g><g fill="#35323d" fill-opacity="1"><g transform="translate(221.991768, 258.76595)"><g><path d="M 4.28125 -1.34375 L 1.921875 -1.34375 L 1.46875 0 L 0.03125 0 L 2.46875 -6.546875 L 3.71875 -6.546875 L 6.171875 0 L 4.734375 0 Z M 2.28125 -2.4375 L 3.90625 -2.4375 L 3.09375 -4.890625 Z M 2.28125 -2.4375 "/></g></g></g><g fill="#35323d" fill-opacity="1"><g transform="translate(233.70626, 258.76595)"><g><path d="M 5.90625 0 L 4.5625 0 L 1.9375 -4.3125 L 1.9375 0 L 0.578125 0 L 0.578125 -6.546875 L 1.9375 -6.546875 L 4.5625 -2.234375 L 4.5625 -6.546875 L 5.90625 -6.546875 Z M 5.90625 0 "/></g></g></g><g fill="#35323d" fill-opacity="1"><g transform="translate(245.726195, 258.76595)"><g><path d="M 5.515625 -5.453125 L 3.5 -5.453125 L 3.5 0 L 2.15625 0 L 2.15625 -5.453125 L 0.1875 -5.453125 L 0.1875 -6.546875 L 5.515625 -6.546875 Z M 5.515625 -5.453125 "/></g></g></g></svg>